<svg width="140" height="51" viewBox="0 0 140 51" fill="none" xmlns="http://www.w3.org/2000/svg">
<path d="M126.614 36.1092C125.279 36.1092 124.284 35.6688 123.631 34.7881C123.006 33.9074 122.495 32.6857 122.097 31.1231C121.585 31.6345 121.23 31.8902 121.031 31.8902C120.889 31.8902 120.818 31.7766 120.818 31.5493C120.818 31.3788 120.889 31.2225 121.031 31.0805C121.031 31.0805 121.387 30.6401 122.097 29.7594C122.836 28.8786 124.071 27.6428 125.804 26.0518L131.174 21.023C131.913 20.3128 132.495 19.773 132.921 19.4036C133.376 19.0343 133.703 18.8496 133.902 18.8496C134.811 18.8496 135.265 19.1905 135.265 19.8724C135.265 20.2133 135.081 20.6111 134.711 21.0657C134.427 21.4066 134.214 21.6765 134.072 21.8754C133.958 22.0458 133.887 22.1453 133.859 22.1737C133.348 23.0544 132.879 24.6312 132.453 26.9041C132.14 28.5803 131.87 29.9583 131.643 31.0379C131.416 32.1175 131.231 32.8988 131.089 33.3818C132.282 33.3534 133.461 32.984 134.626 32.2737C135.791 31.5635 137.041 30.3986 138.376 28.7792C138.433 28.7224 138.518 28.6372 138.632 28.5235C138.746 28.4099 138.859 28.353 138.973 28.353C139.143 28.353 139.229 28.4241 139.229 28.5661C139.229 28.7082 139.186 28.8502 139.101 28.9923C139.016 29.1343 138.93 29.2622 138.845 29.3758C137.964 30.427 137.14 31.2936 136.373 31.9754C135.606 32.6289 134.796 33.1545 133.944 33.5522C133.092 33.9216 132.083 34.2341 130.918 34.4898L129.555 35.3847C129.185 35.6404 128.745 35.8251 128.234 35.9387C127.722 36.0524 127.182 36.1092 126.614 36.1092ZM127.126 33.9358C127.779 33.9358 128.319 33.7795 128.745 33.467C129.058 33.2965 129.356 32.8278 129.64 32.0607C129.952 31.2652 130.251 30.285 130.535 29.1201C130.762 28.1258 130.933 27.1598 131.046 26.2222C131.188 25.2563 131.316 24.3329 131.43 23.4522L131.6 22.0032C130.947 22.4862 130.123 23.1823 129.129 24.0914C128.134 25.0006 127.154 25.9523 126.188 26.9467C125.222 27.9411 124.597 28.6798 124.313 29.1628C124.029 29.6173 123.873 29.9583 123.844 30.1855C123.73 31.322 124 32.2311 124.654 32.913C125.336 33.5948 126.16 33.9358 127.126 33.9358Z" fill="black"/>
<path d="M51.2285 25.2399C51.2285 11.3024 39.93 0.00390625 25.9926 0.00390625L0.756588 0.00390625L0.756588 25.2399C0.756588 39.1773 12.0551 50.4758 25.9926 50.4758C39.93 50.4758 51.2285 39.1773 51.2285 25.2399Z" fill="#97DE00"/>
<path d="M94.4462 36.0311C93.7075 36.0311 93.1108 35.6476 92.6563 34.8805C92.3438 34.3122 92.1875 33.7014 92.1875 33.048C92.1875 31.4001 93.395 29.042 95.8099 25.9737C98.4237 22.9053 100.455 21.3711 101.904 21.3711C103.325 21.3711 104.035 22.1382 104.035 23.6724C104.035 24.1554 103.978 24.6668 103.864 25.2066C103.864 25.2918 104.006 25.3344 104.291 25.3344C104.688 25.306 105.185 25.2208 105.782 25.0787C106.379 24.9082 107.004 24.7236 107.657 24.5247C108.311 24.2974 108.907 24.0843 109.447 23.8855C109.987 23.6582 110.385 23.4877 110.64 23.3741C111.209 22.9195 111.791 22.6922 112.388 22.6922C113.069 22.6922 113.41 22.9479 113.41 23.4593C113.41 23.6582 113.325 23.8428 113.155 24.0133C112.615 24.4679 112.004 25.1071 111.322 25.931C110.669 26.7265 109.958 27.6925 109.191 28.8289C108.197 30.1927 107.458 31.3859 106.975 32.4087C106.492 33.4031 106.265 34.1986 106.293 34.7952C106.379 35.1362 106.563 35.3066 106.847 35.3066C107.046 35.3066 107.359 35.2356 107.785 35.0935C108.211 34.9231 108.779 34.5964 109.49 34.1134C110.2 33.602 111.038 32.8349 112.004 31.8121C112.146 31.67 112.586 31.187 113.325 30.3631C114.064 29.5108 115.044 28.2749 116.266 26.6555C117.345 25.2918 118.269 24.2832 119.036 23.6298C119.831 22.9479 120.371 22.607 120.655 22.607C121.621 22.607 122.147 22.9621 122.232 23.6724C122.232 23.786 122.09 24.0559 121.806 24.4821C121.522 24.9082 121.053 25.4765 120.399 26.1867C119.604 27.1527 118.922 27.9908 118.354 28.7011C117.814 29.4114 117.388 29.9796 117.075 30.4057C115.882 32.1672 115.328 33.4741 115.413 34.3264C115.413 34.8094 115.57 35.0651 115.882 35.0935C116.195 35.0935 116.493 35.0367 116.777 34.9231C117.715 34.5537 118.737 33.9145 119.845 33.0053C120.982 32.0962 122.303 30.7609 123.809 28.9994C123.922 28.8574 124.079 28.7721 124.278 28.7437C124.476 28.6869 124.576 28.7721 124.576 28.9994C124.576 29.0562 124.547 29.1557 124.491 29.2977C124.462 29.4114 124.377 29.5392 124.235 29.6813C123.61 30.42 123.013 31.0876 122.445 31.6842C121.877 32.2809 121.138 32.9485 120.229 33.6872C119.576 34.227 118.894 34.8094 118.183 35.4345C117.502 36.0311 116.749 36.3294 115.925 36.3294C115.243 36.3294 114.646 36.1447 114.135 35.7754C113.652 35.3776 113.41 34.8663 113.41 34.2412C113.41 33.5594 113.51 32.9485 113.709 32.4087C113.936 31.8405 114.092 31.2723 114.178 30.7041C112.871 32.2667 111.706 33.4599 110.683 34.2838C109.689 35.1077 108.85 35.676 108.169 35.9885C107.487 36.2726 106.961 36.4146 106.592 36.4146C106.222 36.4146 105.825 36.2726 105.399 35.9885C105.001 35.676 104.731 35.193 104.589 34.5395C104.447 33.8861 104.575 33.0622 104.972 32.0678C105.399 30.9029 106.052 29.6102 106.933 28.1897C107.813 26.7692 108.723 25.5049 109.66 24.3969C109.404 24.5389 109.106 24.7094 108.765 24.9082C108.453 25.0787 108.069 25.2492 107.615 25.4196C107.274 25.5333 106.833 25.6895 106.293 25.8884C105.754 26.0873 105.228 26.2578 104.717 26.3998C104.234 26.5419 103.879 26.5987 103.651 26.5703C103.992 27.5078 103.055 29.2835 100.839 31.8973C98.651 34.6532 96.719 36.0311 95.0428 36.0311H94.4462ZM95.1706 34.6674C96.3639 34.6674 97.9407 33.5878 99.901 31.4285C101.719 29.2125 102.628 27.6499 102.628 26.7407C102.202 26.4566 101.62 25.8032 100.881 24.7804C100.029 24.7804 98.6368 25.931 96.7048 28.2323C95.8241 29.3688 95.1706 30.3773 94.7445 31.2581C94.3467 32.1388 94.1478 32.8633 94.1478 33.4315C94.2331 34.2554 94.574 34.6674 95.1706 34.6674Z" fill="black"/>
<path d="M93.3211 21.3661C92.8381 21.3661 92.412 21.2099 92.0426 20.8973C91.7017 20.5848 91.5312 20.2297 91.5312 19.8319C91.5312 19.0364 92.071 18.6387 93.1507 18.6387C93.5484 18.6387 93.9462 18.7807 94.3439 19.0648C94.7417 19.3205 94.9405 19.6473 94.9405 20.045C94.9405 20.3859 94.7559 20.6985 94.3865 20.9826C94.0172 21.2383 93.662 21.3661 93.3211 21.3661ZM85.4371 36.4949C84.8121 36.4949 84.3007 36.296 83.9029 35.8983C83.4768 35.4721 83.2637 34.7334 83.2637 33.6822C83.2637 33.0856 83.4057 32.4037 83.6898 31.6366C83.9455 30.8411 84.2723 30.0456 84.67 29.2501C85.0962 28.4546 85.5081 27.7444 85.9059 27.1193C87.4969 24.5339 88.8038 23.227 89.8266 23.1986C90.0823 23.1986 90.3948 23.3123 90.7641 23.5395C91.1335 23.7384 91.3182 23.9657 91.3182 24.2214C91.3182 24.2214 90.2385 25.6135 88.0793 28.3978C85.9485 31.1537 84.8831 33.114 84.8831 34.2789C84.8831 35.188 85.2382 35.6426 85.9485 35.6426C86.4031 35.6426 86.9855 35.4579 87.6958 35.0886C88.4344 34.6908 89.2015 34.1936 89.997 33.597C90.7926 33.0004 91.5454 32.3611 92.2557 31.6793C92.9944 30.9974 93.591 30.3724 94.0456 29.8041C94.3297 29.4348 94.5712 29.1791 94.7701 29.037C94.9974 28.895 95.1394 28.824 95.1962 28.824C95.3099 28.824 95.3667 28.9092 95.3667 29.0797C95.3667 29.2217 95.1962 29.5058 94.8553 29.932C94.5428 30.3582 94.1024 30.8553 93.5342 31.4236C92.8523 32.1054 92.0995 32.8441 91.2755 33.6396C90.4516 34.4351 89.5567 35.117 88.5907 35.6852C87.6247 36.225 86.5735 36.4949 85.4371 36.4949Z" fill="black"/>
<path d="M76.0182 36.5735C75.1091 36.5735 74.2852 36.2894 73.5465 35.7212C72.8078 35.1245 72.4385 34.3432 72.4385 33.3773C72.4385 31.3601 73.6743 29.0588 76.1461 26.4734C78.6747 23.8596 80.9333 22.5527 82.9221 22.5527C83.6039 22.5527 84.1438 22.7374 84.5415 23.1067C84.9393 23.4477 85.1381 23.8738 85.1381 24.3852C85.1381 25.0955 84.9677 25.749 84.6267 26.3456C84.229 27.0843 83.6608 27.4536 82.9221 27.4536C82.1834 27.4536 81.8141 27.2263 81.8141 26.7717C81.8141 26.4592 81.9987 25.9904 82.3681 25.3654C82.7658 24.712 82.9647 24.371 82.9647 24.3426C82.9647 24.2858 82.9221 24.2574 82.8369 24.2574C82.0414 24.3426 80.9333 24.925 79.5128 26.0047C78.8877 26.4876 78.3337 26.9422 77.8507 27.3684C77.3962 27.7945 77.0268 28.2065 76.7427 28.6042L75.0807 31.0334C74.9102 31.2891 74.7256 31.7294 74.5267 32.3545C74.3562 32.9795 74.271 33.4483 74.271 33.7608C74.271 34.329 74.4557 34.7978 74.825 35.1672C75.2227 35.5365 75.7199 35.7212 76.3166 35.7212C77.7371 35.7212 79.6122 34.7978 81.9419 32.9511C83.817 31.4737 85.3228 29.9822 86.4592 28.4764C86.6013 28.3059 86.7718 28.2207 86.9706 28.2207C87.1695 28.2207 87.2689 28.2775 87.2689 28.3912C87.2689 28.4764 87.1979 28.6185 87.0559 28.8173C85.4933 30.8913 83.6608 32.6812 81.5584 34.187C79.3139 35.778 77.4672 36.5735 76.0182 36.5735Z" fill="black"/>
<path d="M73.5369 21.3661C73.054 21.3661 72.6278 21.2099 72.2584 20.8973C71.9175 20.5848 71.7471 20.2297 71.7471 19.8319C71.7471 19.0364 72.2869 18.6387 73.3665 18.6387C73.7642 18.6387 74.162 18.7807 74.5597 19.0648C74.9575 19.3205 75.1564 19.6473 75.1564 20.045C75.1564 20.3859 74.9717 20.6985 74.6023 20.9826C74.233 21.2383 73.8779 21.3661 73.5369 21.3661ZM65.6529 36.4949C65.0279 36.4949 64.5165 36.296 64.1187 35.8983C63.6926 35.4721 63.4795 34.7334 63.4795 33.6822C63.4795 33.0856 63.6215 32.4037 63.9057 31.6366C64.1614 30.8411 64.4881 30.0456 64.8858 29.2501C65.312 28.4546 65.724 27.7444 66.1217 27.1193C67.7127 24.5339 69.0196 23.227 70.0424 23.1986C70.2981 23.1986 70.6106 23.3123 70.98 23.5395C71.3493 23.7384 71.534 23.9657 71.534 24.2214C71.534 24.2214 70.4544 25.6135 68.2951 28.3978C66.1643 31.1537 65.0989 33.114 65.0989 34.2789C65.0989 35.188 65.454 35.6426 66.1643 35.6426C66.6189 35.6426 67.2013 35.4579 67.9116 35.0886C68.6503 34.6908 69.4174 34.1936 70.2129 33.597C71.0084 33.0004 71.7613 32.3611 72.4715 31.6793C73.2102 30.9974 73.8068 30.3724 74.2614 29.8041C74.5455 29.4348 74.787 29.1791 74.9859 29.037C75.2132 28.895 75.3552 28.824 75.4121 28.824C75.5257 28.824 75.5825 28.9092 75.5825 29.0797C75.5825 29.2217 75.4121 29.5058 75.0711 29.932C74.7586 30.3582 74.3182 30.8553 73.75 31.4236C73.0682 32.1054 72.3153 32.8441 71.4914 33.6396C70.6674 34.4351 69.7725 35.117 68.8065 35.6852C67.8406 36.225 66.7894 36.4949 65.6529 36.4949Z" fill="black"/>
<path d="M57.939 36.1109C57.115 36.1109 56.3479 35.912 55.6377 35.5143C54.9274 35.0881 54.5723 34.392 54.5723 33.4261C54.5723 32.0907 55.041 30.4997 55.9786 28.653C56.9446 26.8063 58.0384 24.8886 59.2601 22.8998C62.5841 17.5018 64.9422 14.8027 66.3344 14.8027C66.6185 14.8027 66.9026 14.9164 67.1867 15.1437C67.4992 15.3425 67.6697 15.5698 67.6981 15.8255L64.7149 19.8315C63.5501 21.3941 62.4989 22.843 61.5613 24.1783C60.6238 25.4852 59.8141 26.6643 59.1322 27.7155C58.7913 28.2553 58.4077 28.8661 57.9816 29.548C57.5554 30.2298 57.1719 30.9401 56.8309 31.6788C56.5184 32.3891 56.3621 33.1135 56.3621 33.8522C56.3621 34.1931 56.4616 34.5057 56.6605 34.7898C56.8593 35.0455 57.2145 35.1733 57.7259 35.1733C58.635 35.1733 59.8283 34.6903 61.3056 33.7244C62.783 32.73 64.2462 31.3663 65.6951 29.6332C65.8372 29.4627 65.9934 29.3065 66.1639 29.1644C66.3344 29.0224 66.4764 28.9513 66.5901 28.9513C66.7321 28.9513 66.8031 29.0366 66.8031 29.207C66.8031 29.2923 66.7037 29.4627 66.5048 29.7184C66.3344 29.9457 66.1923 30.1304 66.0787 30.2724L65.0559 31.4231C64.4877 32.0481 63.8058 32.73 63.0103 33.4687C62.2432 34.2074 61.4193 34.8324 60.5385 35.3438C59.6862 35.8552 58.8197 36.1109 57.939 36.1109Z" fill="black"/>
<path d="M46.8747 36.5735C45.9655 36.5735 45.1416 36.2894 44.4029 35.7212C43.6643 35.1245 43.2949 34.3432 43.2949 33.3773C43.2949 31.3601 44.5308 29.0588 47.0025 26.4734C49.5311 23.8596 51.7898 22.5527 53.7785 22.5527C54.432 22.5527 54.9576 22.7374 55.3553 23.1067C55.7815 23.4477 55.9946 23.8738 55.9946 24.3852C55.9946 25.9762 54.7303 27.5388 52.2017 29.073C49.9573 30.4367 48.0679 31.1186 46.5338 31.1186C46.3065 31.1186 46.1076 31.0902 45.9371 31.0334C45.511 31.8005 45.2979 32.6102 45.2979 33.4625C45.2979 34.9399 45.994 35.6786 47.3861 35.6786C48.8066 35.6786 50.6391 34.7268 52.8836 32.8233C54.6166 31.4311 56.094 29.9538 57.3157 28.3912C57.5714 28.0502 57.7987 27.8798 57.9975 27.8798C58.168 27.8798 58.2532 27.965 58.2532 28.1355C58.2532 28.3059 58.1396 28.5474 57.9123 28.8599C57.1168 29.9111 56.2645 30.8771 55.3553 31.7579C54.4462 32.6386 53.466 33.4483 52.4148 34.187C50.2272 35.778 48.3805 36.5735 46.8747 36.5735ZM47.1304 30.1811C48.21 30.1811 49.6163 29.6412 51.3494 28.5616C51.9176 28.1639 52.4716 27.7235 53.0114 27.2405C53.5797 26.7291 54.0342 26.2177 54.3752 25.7063C54.7445 25.1949 54.9292 24.7404 54.9292 24.3426C54.9292 23.9733 54.6309 23.7886 54.0342 23.7886C53.1819 23.7886 51.9886 24.4279 50.4545 25.7063C49.7158 26.3314 49.0055 27.0132 48.3236 27.7519C47.6418 28.4906 47.0594 29.2719 46.5764 30.0958C46.7468 30.1526 46.9315 30.1811 47.1304 30.1811Z" fill="black"/>
<path d="M24.6028 38.4963C19.8582 38.7236 16.4489 37.5446 14.3749 34.9592C11.8748 36.8911 10.0423 37.8571 8.87742 37.8571C8.25238 37.8571 7.7836 37.5446 7.47108 36.9195C7.18698 36.3229 7.04492 35.6695 7.04492 34.9592C7.04492 33.5955 7.57052 31.6351 8.62172 29.0781C9.8718 26.1802 11.0224 24.7313 12.0736 24.7313C12.6135 24.7313 13.0254 25.5836 13.3095 27.2882C13.7925 29.8452 14.2329 31.6067 14.6306 32.5727C15.5682 31.5783 16.733 30.2288 18.1252 28.5241C19.5457 26.8195 21.1793 24.7597 23.026 22.3448C27.6286 16.2932 30.6828 12.9834 32.1885 12.4152C32.6999 12.2163 33.2113 12.1168 33.7227 12.1168C34.2909 12.1168 34.7455 12.2447 35.0864 12.5004C35.4558 12.7277 35.6405 12.9976 35.6405 13.3101C35.6405 13.7931 35.2285 14.0772 34.4046 14.1624C33.808 14.4749 33.0693 15.0148 32.1885 15.7818C31.3362 16.5489 30.4271 17.4297 29.4611 18.4241C28.5235 19.39 27.6428 20.356 26.8189 21.322C25.995 22.2595 25.3273 23.0692 24.8159 23.7511C21.776 27.9843 18.736 31.3652 15.696 33.8938L15.4403 34.1069C16.3495 35.4422 17.4433 36.3655 18.7218 36.8769C20.0003 37.3883 21.4208 37.644 22.9834 37.644C25.5688 37.644 28.0263 37.2463 30.356 36.4508C32.7141 35.6837 34.8307 34.533 36.7059 32.9988C38.6094 31.4362 40.172 29.5327 41.3937 27.2882C42.729 24.8449 43.3966 22.5152 43.3966 20.2992C43.3966 18.7934 43.0699 17.3729 42.4164 16.0375C41.763 14.6738 40.8823 13.509 39.7742 12.543C38.6946 11.577 37.4872 10.952 36.1518 10.6679C34.5893 10.327 32.9556 10.1565 31.251 10.1565C26.8757 10.1565 22.8414 11.1651 19.1479 13.1823C15.2557 15.3131 13.3095 17.6996 13.3095 20.3418C13.3095 21.0521 13.5226 21.6629 13.9488 22.1743C14.2897 22.572 14.5312 22.7993 14.6732 22.8562H14.4175C13.622 22.7141 12.9402 22.3163 12.372 21.6629C11.8037 21.0094 11.5196 20.285 11.5196 19.4895C11.5196 18.0121 11.9742 16.6626 12.8834 15.4409C13.8209 14.1908 15.1704 13.0544 16.9319 12.0316C20.4548 10.0144 24.617 9.00586 29.4185 9.00586C30.4981 9.00586 31.5777 9.06268 32.6573 9.17632C33.7369 9.28997 34.8023 9.46043 35.8535 9.68772C37.7002 10.0855 39.3765 10.8384 40.8823 11.9464C42.388 13.0544 43.5955 14.4039 44.5046 15.9949C45.4138 17.5859 45.8684 19.3048 45.8684 21.1515C45.8684 23.2823 45.2433 25.4842 43.9932 27.757C42.7432 30.0583 41.1238 31.9902 39.135 33.5528C37.1746 35.087 34.9586 36.2519 32.4868 37.0474C30.0151 37.8713 27.3871 38.3543 24.6028 38.4963ZM9.0905 37.09C10.3122 36.5502 11.7895 35.428 13.5226 33.7233C12.6987 32.3596 12.1589 31.2089 11.9032 30.2714C11.7327 29.6464 11.6049 28.6946 11.5196 27.4161C9.55928 30.2288 8.57911 32.6863 8.57911 34.7887C8.57911 35.6695 8.74957 36.4365 9.0905 37.09Z" fill="black"/>
</svg>
