<svg width="238" height="238" viewBox="0 0 238 238" fill="none" xmlns="http://www.w3.org/2000/svg">
<path d="M84.8042 177.393H73.648V124.213H84.8042V177.393ZM124.374 119.607H113.218V181.999H124.374V119.607ZM163.93 124.213H152.774V177.393H163.93V124.213ZM228.703 99.4308H217.712L199.731 190.424C197.084 203.909 185.616 213.332 171.845 213.332H66.1547C52.393 213.332 40.9202 203.911 38.2552 190.424L20.2876 99.4308H9.29688V88.2746H61.3036L75.4716 47.4632C80.2646 33.6197 92.8488 24.6719 107.53 24.6719H130.47C145.135 24.6719 157.718 33.6178 162.528 47.4622L176.684 88.2746H228.703V99.4308ZM73.1129 88.2746H164.876L151.989 51.1206C148.762 41.8316 140.315 35.8281 130.47 35.8281H107.53C97.6739 35.8281 89.2281 41.8297 86.0119 51.1178L73.1129 88.2746ZM206.34 99.4308H31.6591L49.2 188.262C50.8186 196.453 57.7903 202.175 66.1547 202.175H171.845C180.212 202.175 187.178 196.456 188.785 188.268L206.34 99.4308Z" fill="black" fill-opacity="0.18"/>
</svg>
