<svg width="14" height="14" viewBox="0 0 14 14" fill="none" xmlns="http://www.w3.org/2000/svg">
<g clip-path="url(#clip0_2556_4210)">
<path d="M7.36043 12.0649H12.2226C12.5208 12.0649 12.7628 11.8228 12.7628 11.5246V1.80041C12.7628 1.50219 12.5208 1.26018 12.2226 1.26018H7.36043C7.06169 1.26018 6.82021 1.01871 6.82021 0.719961C6.82021 0.421215 7.06169 0.179688 7.36043 0.179688H12.2226C13.1161 0.179688 13.8433 0.906862 13.8433 1.80041V11.5246C13.8433 12.4182 13.1161 13.1453 12.2226 13.1453H7.36043C7.06169 13.1453 6.82021 12.9038 6.82021 12.6051C6.82021 12.3063 7.06169 12.0649 7.36043 12.0649Z" fill="black"/>
<path d="M0.996482 6.27585L4.28111 3.03444C4.49289 2.82482 4.83539 2.82754 5.045 3.03985C5.25462 3.25216 5.25246 3.59412 5.03959 3.80374L2.69228 6.12025H8.98224C9.28098 6.12025 9.52246 6.36173 9.52246 6.66048C9.52246 6.95922 9.28098 7.20072 8.98224 7.20072H2.69228L5.03959 9.51724C5.25243 9.72685 5.25406 10.0688 5.045 10.2811C4.99476 10.3321 4.93488 10.3726 4.86884 10.4002C4.80281 10.4279 4.73194 10.4421 4.66035 10.4421C4.52312 10.4421 4.38592 10.3903 4.28111 10.2865L0.996482 7.0451C0.945549 6.99481 0.905095 6.93492 0.877462 6.8689C0.849829 6.80287 0.835566 6.73202 0.835497 6.66045C0.835497 6.51573 0.8933 6.37796 0.996482 6.27585Z" fill="black"/>
</g>
<defs>
<clipPath id="clip0_2556_4210">
<rect width="13.0089" height="13.0089" fill="white" transform="matrix(-1 0 0 1 13.8418 0.158203)"/>
</clipPath>
</defs>
</svg>
