<svg width="197" height="163" viewBox="0 0 197 163" fill="none" xmlns="http://www.w3.org/2000/svg">
<path d="M150.051 59.3467C150.051 64.3787 148.514 68.3623 145.439 71.2976C142.364 74.163 138.45 75.5957 133.698 75.5957C128.945 75.5957 125.031 74.163 121.956 71.2976C118.881 68.3623 117.344 64.3787 117.344 59.3467C117.344 54.3147 118.881 50.366 121.956 47.5006C125.031 44.6352 128.945 43.2025 133.698 43.2025C138.45 43.2025 142.364 44.6352 145.439 47.5006C148.514 50.366 150.051 54.3147 150.051 59.3467ZM128.77 59.3467C128.77 61.5831 129.225 63.2954 130.133 64.4835C131.112 65.6017 132.3 66.1608 133.698 66.1608C135.095 66.1608 136.249 65.6017 137.157 64.4835C138.136 63.2954 138.625 61.5831 138.625 59.3467C138.625 57.1802 138.136 55.5378 137.157 54.4196C136.249 53.3014 135.095 52.7422 133.698 52.7422C132.3 52.7422 131.112 53.3014 130.133 54.4196C129.225 55.5378 128.77 57.1802 128.77 59.3467ZM134.012 96.9816L170.808 43.0977C172.975 43.4471 174.897 44.0411 176.574 44.8798C178.321 45.7185 179.195 46.8716 179.195 48.3393C179.195 49.3876 178.915 50.4359 178.356 51.4843C177.867 52.5326 177.238 53.6159 176.469 54.7341L139.673 108.513C137.227 108.303 135.2 107.744 133.593 106.836C132.055 105.857 131.286 104.669 131.286 103.272C131.286 102.293 131.531 101.28 132.02 100.231C132.51 99.1831 133.173 98.0998 134.012 96.9816ZM193.138 92.3689C193.138 97.4009 191.6 101.385 188.525 104.32C185.45 107.185 181.536 108.618 176.784 108.618C172.031 108.618 168.083 107.185 164.938 104.32C161.863 101.385 160.325 97.4009 160.325 92.3689C160.325 87.337 161.863 83.3883 164.938 80.5229C168.083 77.6574 172.031 76.2247 176.784 76.2247C181.536 76.2247 185.45 77.6574 188.525 80.5229C191.6 83.3883 193.138 87.337 193.138 92.3689ZM171.752 92.3689C171.752 94.6054 172.206 96.3176 173.115 97.5057C174.093 98.624 175.316 99.1831 176.784 99.1831C178.182 99.1831 179.335 98.624 180.243 97.5057C181.222 96.3176 181.711 94.6054 181.711 92.3689C181.711 90.2024 181.222 88.56 180.243 87.4418C179.335 86.3236 178.182 85.7645 176.784 85.7645C175.316 85.7645 174.093 86.3236 173.115 87.4418C172.206 88.56 171.752 90.2024 171.752 92.3689Z" fill="#ADFF00"/>
<path d="M93.9065 75.9188C93.9065 71.3061 93.4173 67.4623 92.4389 64.3872C91.4604 61.2422 90.0976 58.901 88.3504 57.3634C86.6032 55.8259 84.5415 55.0571 82.1653 55.0571C79.859 55.0571 77.8322 55.8608 76.085 57.4683C74.3378 59.0058 72.975 61.3121 71.9965 64.3872C71.088 67.4623 70.6337 71.3061 70.6337 75.9188C70.6337 82.9076 71.6471 88.1492 73.6739 91.6437C75.7006 95.1381 78.5311 96.8853 82.1653 96.8853C85.9393 96.8853 88.8396 95.1381 90.8664 91.6437C92.8932 88.1492 93.9065 82.9076 93.9065 75.9188ZM82.2701 109.36C76.8887 109.36 72.1363 108.137 68.0129 105.691C63.9594 103.175 60.7795 99.4362 58.4731 94.4741C56.1668 89.5121 55.0137 83.3269 55.0137 75.9188C55.0137 68.5106 56.2018 62.3604 58.578 57.4683C60.9542 52.5062 64.169 48.8021 68.2226 46.356C72.346 43.84 77.0285 42.582 82.2701 42.582C87.4419 42.582 92.0895 43.84 96.2129 46.356C100.336 48.8021 103.586 52.5062 105.962 57.4683C108.408 62.4303 109.631 68.5805 109.631 75.9188C109.631 83.3269 108.443 89.5121 106.067 94.4741C103.761 99.4362 100.546 103.175 96.4225 105.691C92.2991 108.137 87.5816 109.36 82.2701 109.36Z" fill="#ADFF00"/>
<path d="M2.8467 52.646C2.8467 50.4794 3.65041 48.6623 5.25784 47.1947C6.86527 45.6571 9.06676 44.504 11.8623 43.7352C14.6578 42.9664 17.9076 42.582 21.6117 42.582C26.8533 42.582 31.2563 43.4207 34.8206 45.098C38.4548 46.7054 41.1805 48.9768 42.9976 51.9121C44.8845 54.7775 45.828 58.0623 45.828 61.7664C45.828 65.4705 44.7797 69.1047 42.6831 72.669C40.5864 76.1634 37.3366 79.7626 32.9336 83.4667L18.3619 95.6273H44.9894C45.3388 96.1864 45.6883 97.0251 46.0377 98.1433C46.3871 99.1916 46.5619 100.345 46.5619 101.603C46.5619 103.769 46.0726 105.342 45.0942 106.32C44.1158 107.299 42.8228 107.788 41.2154 107.788H4.62885C3.30097 106.879 2.25264 105.691 1.48387 104.224C0.784988 102.756 0.435547 101.114 0.435547 99.2964C0.435547 97.1998 0.854879 95.4526 1.69354 94.0548C2.60209 92.5872 3.58053 91.3641 4.62885 90.3857L20.1441 76.6526C23.918 73.3679 26.5039 70.6772 27.9017 68.5805C29.2994 66.4839 29.9983 64.492 29.9983 62.605C29.9983 60.2987 29.1247 58.4816 27.3775 57.1538C25.7002 55.756 23.2541 55.0571 20.0392 55.0571C17.1738 55.0571 14.5879 55.5463 12.2816 56.5248C10.0452 57.4333 8.19316 58.3768 6.7255 59.3552C5.67718 58.6564 4.76863 57.7478 3.99986 56.6296C3.23108 55.5114 2.8467 54.1835 2.8467 52.646Z" fill="#ADFF00"/>
<path d="M44.954 141.186V134.19H56.9203C57.1248 134.517 57.3294 134.988 57.5339 135.601C57.7385 136.215 57.8407 136.89 57.8407 137.626C57.8407 138.895 57.5544 139.815 56.9816 140.388C56.4498 140.92 55.693 141.186 54.7111 141.186H44.954ZM46.3654 131.735V140.081H37.7129V131.428C37.7129 128.728 38.2652 126.54 39.3698 124.862C40.5152 123.185 42.0698 121.958 44.0335 121.18C46.0381 120.362 48.2473 119.953 50.661 119.953C53.5247 119.953 55.652 120.342 57.043 121.119C58.4748 121.855 59.1908 123.062 59.1908 124.74C59.1908 125.476 59.0271 126.131 58.6999 126.703C58.4135 127.276 58.0862 127.726 57.718 128.053C56.9407 127.808 56.1021 127.603 55.202 127.44C54.302 127.276 53.2997 127.194 52.1951 127.194C50.2723 127.194 48.82 127.542 47.8382 128.237C46.8563 128.933 46.3654 130.099 46.3654 131.735ZM37.7129 138.301H46.795V161.436C46.3859 161.559 45.8131 161.661 45.0767 161.743C44.3404 161.866 43.5426 161.927 42.6835 161.927C40.9653 161.927 39.697 161.62 38.8788 161.007C38.1015 160.393 37.7129 159.288 37.7129 157.693V138.301ZM69.9911 141.186V134.19H81.9573C82.1619 134.517 82.3664 134.988 82.571 135.601C82.7755 136.215 82.8778 136.89 82.8778 137.626C82.8778 138.895 82.5914 139.815 82.0187 140.388C81.4869 140.92 80.73 141.186 79.7482 141.186H69.9911ZM71.4025 131.735V140.081H62.75V131.428C62.75 128.728 63.3023 126.54 64.4068 124.862C65.5523 123.185 67.1069 121.958 69.0706 121.18C71.0752 120.362 73.2844 119.953 75.6981 119.953C78.5618 119.953 80.6891 120.342 82.0801 121.119C83.5119 121.855 84.2279 123.062 84.2279 124.74C84.2279 125.476 84.0642 126.131 83.7369 126.703C83.4506 127.276 83.1233 127.726 82.7551 128.053C81.9778 127.808 81.1391 127.603 80.2391 127.44C79.3391 127.276 78.3368 127.194 77.2322 127.194C75.3094 127.194 73.8571 127.542 72.8753 128.237C71.8934 128.933 71.4025 130.099 71.4025 131.735ZM62.75 138.301H71.832V161.436C71.4229 161.559 70.8502 161.661 70.1138 161.743C69.3774 161.866 68.5797 161.927 67.7206 161.927C66.0023 161.927 64.7341 161.62 63.9159 161.007C63.1386 160.393 62.75 159.288 62.75 157.693V138.301Z" fill="white"/>
<path d="M31.8728 146.765C31.8728 149.956 31.2183 152.738 29.9091 155.111C28.6409 157.443 26.8409 159.243 24.509 160.511C22.1771 161.779 19.4361 162.414 16.286 162.414C13.1768 162.414 10.4359 161.8 8.06306 160.573C5.73118 159.304 3.91067 157.504 2.60155 155.172C1.33333 152.8 0.699219 149.997 0.699219 146.765C0.699219 143.533 1.35378 140.772 2.66291 138.481C3.97204 136.149 5.79255 134.349 8.12443 133.081C10.4972 131.772 13.2178 131.117 16.286 131.117C19.3952 131.117 22.1157 131.772 24.4476 133.081C26.7795 134.349 28.6 136.17 29.9091 138.542C31.2183 140.874 31.8728 143.615 31.8728 146.765ZM16.286 138.297C14.3632 138.297 12.8291 139.033 11.6836 140.506C10.579 141.979 10.0268 144.065 10.0268 146.765C10.0268 149.506 10.579 151.613 11.6836 153.086C12.7882 154.518 14.3223 155.234 16.286 155.234C18.2497 155.234 19.7838 154.497 20.8884 153.025C21.993 151.552 22.5453 149.465 22.5453 146.765C22.5453 144.106 21.993 142.04 20.8884 140.567C19.7838 139.054 18.2497 138.297 16.286 138.297Z" fill="white"/>
<path d="M191.683 14.6433L196.635 14.7431V23.3854C196.414 23.4518 196.103 23.5072 195.705 23.5515C195.306 23.618 194.874 23.6513 194.408 23.6513C193.478 23.6513 192.791 23.4851 192.347 23.1527C191.904 22.8203 191.683 22.222 191.683 21.3577V14.6433ZM196.635 17.3025L191.683 17.2028V1.77963C191.904 1.71315 192.214 1.64667 192.613 1.58019C193.012 1.51371 193.444 1.48047 193.91 1.48047C194.863 1.48047 195.549 1.64667 195.971 1.97906C196.414 2.31146 196.635 2.92085 196.635 3.80724V17.3025Z" fill="white"/>
<path d="M180.329 20.2724C180.839 20.2724 181.338 20.2281 181.825 20.1394C182.335 20.0286 182.701 19.9068 182.922 19.7738V16.5828L180.13 16.8487C179.377 16.893 178.778 17.0482 178.335 17.3141C177.892 17.58 177.67 17.9789 177.67 18.5107C177.67 19.0425 177.881 19.4746 178.302 19.807C178.723 20.1173 179.399 20.2724 180.329 20.2724ZM180.13 6.97656C182.435 6.97656 184.274 7.46408 185.648 8.4391C187.022 9.39197 187.709 10.8767 187.709 12.8932V20.4386C187.709 20.9926 187.565 21.4469 187.276 21.8014C186.988 22.1338 186.623 22.4219 186.18 22.6656C185.515 23.0645 184.684 23.3748 183.687 23.5964C182.712 23.8401 181.593 23.962 180.329 23.962C178.069 23.962 176.263 23.5188 174.911 22.6324C173.582 21.746 172.917 20.4275 172.917 18.6769C172.917 17.17 173.382 16.0177 174.313 15.22C175.244 14.4001 176.629 13.9015 178.468 13.7242L182.889 13.2588V12.86C182.889 12.1065 182.59 11.5636 181.991 11.2312C181.415 10.8988 180.584 10.7326 179.498 10.7326C178.656 10.7326 177.825 10.8324 177.005 11.0318C176.208 11.2312 175.488 11.4639 174.845 11.7298C174.579 11.5525 174.346 11.2866 174.147 10.9321C173.97 10.5554 173.881 10.1676 173.881 9.76869C173.881 8.83798 174.391 8.16211 175.41 7.74107C176.053 7.47516 176.795 7.2868 177.637 7.176C178.501 7.04304 179.332 6.97656 180.13 6.97656Z" fill="white"/>
<path d="M158.076 17.7794L157.876 14.4555L166.12 13.1591C166.075 12.5387 165.809 11.9625 165.322 11.4307C164.834 10.8988 164.114 10.6329 163.161 10.6329C162.164 10.6329 161.333 10.9764 160.668 11.6633C160.004 12.3281 159.649 13.281 159.605 14.5219L159.771 16.8155C159.97 18.0343 160.491 18.9096 161.333 19.4414C162.175 19.9511 163.172 20.2059 164.325 20.2059C165.255 20.2059 166.131 20.073 166.951 19.807C167.77 19.5411 168.435 19.2641 168.945 18.9761C169.277 19.1755 169.543 19.4525 169.743 19.807C169.964 20.1616 170.075 20.5383 170.075 20.9372C170.075 21.602 169.809 22.156 169.277 22.5992C168.768 23.0424 168.047 23.3748 167.117 23.5964C166.208 23.8179 165.167 23.9287 163.992 23.9287C162.286 23.9287 160.746 23.6074 159.372 22.9648C158.02 22.3222 156.957 21.3582 156.181 20.073C155.405 18.7877 155.018 17.1811 155.018 15.2532C155.018 13.835 155.239 12.6051 155.682 11.5636C156.148 10.5221 156.757 9.66897 157.511 9.00418C158.286 8.31723 159.15 7.80755 160.103 7.47516C161.078 7.14276 162.087 6.97656 163.128 6.97656C164.657 6.97656 165.987 7.2868 167.117 7.90727C168.269 8.50558 169.167 9.32549 169.809 10.367C170.452 11.4085 170.773 12.6162 170.773 13.9901C170.773 14.6771 170.585 15.1978 170.208 15.5524C169.831 15.9069 169.311 16.1285 168.646 16.2172L158.076 17.7794Z" fill="white"/>
<path d="M142.352 12.4279V16.2172H137.399V13.0594C137.399 12.306 137.178 11.752 136.734 11.3974C136.291 11.0429 135.737 10.8656 135.072 10.8656C134.585 10.8656 134.142 10.9432 133.743 11.0983C133.366 11.2312 133.045 11.3753 132.779 11.5304V16.2172H127.859V11.0318C127.859 10.4778 127.97 10.0235 128.192 9.66897C128.436 9.29225 128.779 8.95986 129.222 8.67178C129.953 8.16211 130.851 7.75215 131.915 7.44192C132.978 7.13168 134.086 6.97656 135.239 6.97656C136.302 6.97656 137.299 7.14276 138.23 7.47516C139.161 7.80755 139.97 8.31723 140.657 9.00418C140.834 9.13714 141 9.28117 141.155 9.43629C141.332 9.56925 141.465 9.72437 141.554 9.90165C141.776 10.2562 141.964 10.6551 142.119 11.0983C142.274 11.5415 142.352 11.9847 142.352 12.4279ZM151.892 12.9264V16.2172H146.972V13.0594C146.972 12.306 146.762 11.752 146.341 11.3974C145.92 11.0429 145.366 10.8656 144.679 10.8656C144.169 10.8656 143.681 10.9764 143.216 11.198C142.773 11.3974 142.385 11.6412 142.053 11.9293L139.46 9.07066C140.191 8.4945 141.022 8.00699 141.953 7.60812C142.884 7.18708 144.025 6.97656 145.377 6.97656C146.529 6.97656 147.604 7.176 148.601 7.57487C149.598 7.97375 150.396 8.6053 150.994 9.46953C151.592 10.3338 151.892 11.4861 151.892 12.9264ZM127.859 14.6881H132.779V23.3969C132.557 23.4634 132.247 23.5188 131.848 23.5631C131.449 23.6296 131.017 23.6628 130.552 23.6628C129.621 23.6628 128.934 23.4966 128.491 23.1642C128.07 22.8318 127.859 22.2335 127.859 21.3693V14.6881ZM137.399 14.6881H142.352V23.3969C142.13 23.4634 141.82 23.5188 141.421 23.5631C141.022 23.6296 140.59 23.6628 140.125 23.6628C139.172 23.6628 138.474 23.4966 138.031 23.1642C137.61 22.8318 137.399 22.2335 137.399 21.3693V14.6881ZM146.972 14.6881H151.892V23.3969C151.692 23.4634 151.393 23.5188 150.994 23.5631C150.595 23.6296 150.163 23.6628 149.698 23.6628C148.745 23.6628 148.047 23.4966 147.604 23.1642C147.183 22.8318 146.972 22.2335 146.972 21.3693V14.6881Z" fill="white"/>
<path d="M118.124 18.7669C118.124 20.3845 117.515 21.6587 116.296 22.5894C115.077 23.498 113.304 23.9523 110.978 23.9523C109.16 23.9523 107.665 23.6863 106.49 23.1545C105.316 22.6227 104.729 21.836 104.729 20.7945C104.729 20.3291 104.828 19.9303 105.028 19.5979C105.227 19.2433 105.482 18.9663 105.792 18.7669C106.413 19.1214 107.133 19.4538 107.953 19.7641C108.795 20.0521 109.748 20.1962 110.811 20.1962C112.429 20.1962 113.238 19.7308 113.238 18.8001C113.238 18.4012 113.094 18.091 112.806 17.8694C112.518 17.6257 112.041 17.4484 111.376 17.3376L109.98 17.0052C108.208 16.6285 106.878 16.0523 105.992 15.2767C105.127 14.479 104.695 13.3932 104.695 12.0192C104.695 10.4681 105.316 9.2382 106.557 8.32966C107.82 7.39895 109.515 6.93359 111.642 6.93359C112.706 6.93359 113.67 7.04439 114.534 7.26599C115.421 7.46543 116.119 7.78674 116.628 8.22994C117.138 8.65097 117.393 9.18281 117.393 9.82544C117.393 10.2686 117.304 10.6564 117.127 10.9888C116.95 11.3212 116.717 11.5982 116.429 11.8198C116.185 11.6647 115.808 11.4985 115.299 11.3212C114.811 11.1439 114.268 10.9999 113.67 10.8891C113.094 10.7783 112.551 10.7229 112.041 10.7229C111.244 10.7229 110.623 10.8337 110.18 11.0553C109.737 11.2547 109.515 11.5761 109.515 12.0192C109.515 12.3073 109.637 12.5622 109.881 12.7838C110.147 12.9832 110.601 13.1494 111.244 13.2824L112.573 13.6148C114.545 14.0579 115.964 14.7006 116.828 15.5426C117.692 16.3626 118.124 17.4373 118.124 18.7669Z" fill="white"/>
<path d="M96.3481 19.4631V9.45797H101.268V20.0946C101.268 20.6265 101.157 21.0807 100.935 21.4575C100.714 21.812 100.359 22.1333 99.8715 22.4214C99.2732 22.8203 98.4865 23.1638 97.5115 23.4518C96.5586 23.7621 95.4506 23.9172 94.1875 23.9172C92.3483 23.9172 90.7528 23.607 89.401 22.9865C88.0715 22.366 87.041 21.4353 86.3098 20.1944C85.6007 18.9312 85.2461 17.369 85.2461 15.5076C85.2461 13.5575 85.6117 11.962 86.343 10.7211C87.0964 9.45797 88.1047 8.51618 89.3678 7.89571C90.6309 7.27524 92.027 6.965 93.556 6.965C94.3537 6.965 95.0628 7.05364 95.6833 7.23092C96.3038 7.40819 96.8135 7.61871 97.2123 7.86247V11.9177C96.9021 11.6518 96.4922 11.408 95.9825 11.1864C95.4728 10.9648 94.8856 10.854 94.2208 10.854C93.4452 10.854 92.7582 11.0202 92.1599 11.3526C91.5616 11.685 91.0963 12.1947 90.7639 12.8816C90.4315 13.5686 90.2653 14.4439 90.2653 15.5076C90.2653 17.0588 90.6087 18.2 91.2957 18.9312C92.0048 19.6625 92.9577 20.0282 94.1543 20.0282C94.6418 20.0282 95.0739 19.9728 95.4506 19.862C95.8274 19.729 96.1265 19.596 96.3481 19.4631ZM101.268 10.4219L96.3481 10.4552V1.77963C96.5476 1.71315 96.8467 1.64667 97.2456 1.58019C97.6445 1.51371 98.0766 1.48047 98.5419 1.48047C99.517 1.48047 100.215 1.64667 100.636 1.97906C101.057 2.31146 101.268 2.92085 101.268 3.80724V10.4219Z" fill="white"/>
<path d="M82.1525 13.0926V16.2172H77.1998V13.2588C77.1998 12.4389 76.956 11.8406 76.4685 11.4639C76.0032 11.065 75.3827 10.8656 74.6071 10.8656C74.0531 10.8656 73.5434 10.9432 73.0781 11.0983C72.6127 11.2312 72.1917 11.3974 71.815 11.5969V16.2172H66.8955V11.0318C66.8955 10.4778 67.0063 10.0235 67.2279 9.66897C67.4717 9.29225 67.8151 8.95986 68.2583 8.67178C68.9674 8.18427 69.876 7.78539 70.984 7.47516C72.092 7.14276 73.3108 6.97656 74.6403 6.97656C77.0336 6.97656 78.8839 7.5084 80.1913 8.57206C81.4988 9.61357 82.1525 11.1204 82.1525 13.0926ZM66.8955 14.6881H71.815V23.3969C71.5934 23.4634 71.2831 23.5188 70.8843 23.5631C70.4854 23.6296 70.0533 23.6628 69.5879 23.6628C68.6572 23.6628 67.9703 23.4966 67.5271 23.1642C67.106 22.8318 66.8955 22.2335 66.8955 21.3693V14.6881ZM77.1998 14.6881H82.1525V23.3969C81.9309 23.4634 81.6206 23.5188 81.2218 23.5631C80.8229 23.6296 80.3908 23.6628 79.9254 23.6628C78.9947 23.6628 78.3078 23.4966 77.8646 23.1642C77.4214 22.8318 77.1998 22.2335 77.1998 21.3693V14.6881Z" fill="white"/>
<path d="M51.1713 17.7794L50.9719 14.4555L59.2153 13.1591C59.171 12.5387 58.9051 11.9625 58.4176 11.4307C57.93 10.8988 57.2098 10.6329 56.257 10.6329C55.2598 10.6329 54.4288 10.9764 53.764 11.6633C53.0992 12.3281 52.7447 13.281 52.7003 14.5219L52.8665 16.8155C53.066 18.0343 53.5867 18.9096 54.4288 19.4414C55.2709 19.9511 56.2681 20.2059 57.4204 20.2059C58.3511 20.2059 59.2264 20.073 60.0463 19.807C60.8662 19.5411 61.531 19.2641 62.0407 18.9761C62.3731 19.1755 62.639 19.4525 62.8384 19.807C63.06 20.1616 63.1708 20.5383 63.1708 20.9372C63.1708 21.602 62.9049 22.156 62.3731 22.5992C61.8634 23.0424 61.1432 23.3748 60.2125 23.5964C59.3039 23.8179 58.2624 23.9287 57.088 23.9287C55.3817 23.9287 53.8416 23.6074 52.4677 22.9648C51.1159 22.3222 50.0523 21.3582 49.2767 20.073C48.5011 18.7877 48.1133 17.1811 48.1133 15.2532C48.1133 13.835 48.3349 12.6051 48.7781 11.5636C49.2434 10.5221 49.8528 9.66897 50.6063 9.00418C51.3818 8.31723 52.2461 7.80755 53.1989 7.47516C54.174 7.14276 55.1822 6.97656 56.2237 6.97656C57.7528 6.97656 59.0823 7.2868 60.2125 7.90727C61.3648 8.50558 62.2623 9.32549 62.9049 10.367C63.5475 11.4085 63.8688 12.6162 63.8688 13.9901C63.8688 14.6771 63.6805 15.1978 63.3038 15.5524C62.9271 15.9069 62.4063 16.1285 61.7415 16.2172L51.1713 17.7794Z" fill="white"/>
<path d="M39.665 2.88182C39.665 2.12839 39.9199 1.49684 40.4295 0.987167C40.9614 0.477493 41.6262 0.222656 42.4239 0.222656C43.2438 0.222656 43.9086 0.477493 44.4183 0.987167C44.928 1.49684 45.1828 2.12839 45.1828 2.88182C45.1828 3.61309 44.928 4.24464 44.4183 4.77648C43.9086 5.30831 43.2438 5.57423 42.4239 5.57423C41.6262 5.57423 40.9614 5.30831 40.4295 4.77648C39.9199 4.24464 39.665 3.61309 39.665 2.88182ZM39.9642 14.6486H44.8837V23.3906C44.6842 23.4571 44.3851 23.5125 43.9862 23.5568C43.5873 23.6233 43.1552 23.6566 42.6898 23.6566C41.737 23.6566 41.0389 23.4904 40.5957 23.158C40.1747 22.8256 39.9642 22.2273 39.9642 21.363V14.6486ZM44.8837 17.2081H39.9642V7.66832C40.1636 7.60184 40.4628 7.53536 40.8617 7.46888C41.2827 7.40241 41.7259 7.36917 42.1912 7.36917C43.1441 7.36917 43.8311 7.53536 44.2521 7.86776C44.6731 8.178 44.8837 8.78739 44.8837 9.69594V17.2081Z" fill="white"/>
<path d="M31.3032 11.7572V15.9121H26.3838V11.1589C26.3838 10.5384 26.5278 10.0176 26.8159 9.59659C27.1261 9.1534 27.5472 8.7656 28.079 8.43321C28.8103 7.99001 29.6856 7.64654 30.7049 7.40278C31.7464 7.13686 32.8323 7.00391 33.9624 7.00391C36.2227 7.00391 37.3529 7.75734 37.3529 9.2642C37.3529 9.61875 37.2975 9.95115 37.1867 10.2614C37.098 10.5716 36.9872 10.8375 36.8543 11.0591C36.6327 11.0148 36.3557 10.9816 36.0233 10.9594C35.713 10.9151 35.3696 10.8929 34.9928 10.8929C34.328 10.8929 33.6633 10.9705 32.9985 11.1256C32.3337 11.2807 31.7686 11.4912 31.3032 11.7572ZM26.3838 14.649L31.3032 14.7487V23.391C31.0817 23.4575 30.7714 23.5129 30.3725 23.5572C29.9737 23.6237 29.5415 23.6569 29.0762 23.6569C28.1455 23.6569 27.4585 23.4907 27.0153 23.1583C26.5943 22.8259 26.3838 22.2276 26.3838 21.3634V14.649Z" fill="white"/>
<path d="M14.8903 15.1439H9.87109V5.96975C9.87109 5.12768 10.1149 4.47397 10.6024 4.00861C11.0899 3.5211 11.7436 3.27734 12.5635 3.27734C13.0289 3.27734 13.472 3.31058 13.8931 3.37706C14.3363 3.44354 14.6687 3.49894 14.8903 3.54326V15.1439ZM12.497 15.9084V11.8532H22.5021C22.6351 12.0748 22.757 12.3628 22.8678 12.7174C22.9786 13.0498 23.034 13.4154 23.034 13.8143C23.034 14.5234 22.8678 15.0552 22.5354 15.4098C22.2251 15.7422 21.793 15.9084 21.239 15.9084H12.497ZM12.5635 7.33257V3.27734H23.6323C23.7652 3.47678 23.8871 3.75378 23.9979 4.10833C24.1087 4.46289 24.1641 4.8396 24.1641 5.23848C24.1641 5.94759 23.9979 6.47942 23.6655 6.83398C23.3553 7.16637 22.9232 7.33257 22.3692 7.33257H12.5635ZM9.87109 13.1827H14.9235V23.3873C14.7241 23.4538 14.4028 23.5092 13.9596 23.5535C13.5164 23.62 13.0621 23.6532 12.5967 23.6532C11.5996 23.6532 10.8904 23.4759 10.4694 23.1214C10.0705 22.7668 9.87109 22.1574 9.87109 21.2932V13.1827Z" fill="white"/>
</svg>
