<svg viewBox="0 0 267 220" fill="none" xmlns="http://www.w3.org/2000/svg">
<path d="M203.668 80.1986C203.668 87.024 201.582 92.4274 197.411 96.4089C193.24 100.296 187.932 102.239 181.485 102.239C175.039 102.239 169.73 100.296 165.559 96.4089C161.388 92.4274 159.303 87.024 159.303 80.1986C159.303 73.3732 161.388 68.0171 165.559 64.1304C169.73 60.2437 175.039 58.3004 181.485 58.3004C187.932 58.3004 193.24 60.2437 197.411 64.1304C201.582 68.0171 203.668 73.3732 203.668 80.1986ZM174.802 80.1986C174.802 83.2321 175.418 85.5546 176.651 87.1662C177.978 88.6829 179.589 89.4413 181.485 89.4413C183.381 89.4413 184.945 88.6829 186.178 87.1662C187.505 85.5546 188.169 83.2321 188.169 80.1986C188.169 77.2599 187.505 75.0321 186.178 73.5154C184.945 71.9986 183.381 71.2402 181.485 71.2402C179.589 71.2402 177.978 71.9986 176.651 73.5154C175.418 75.0321 174.802 77.2599 174.802 80.1986ZM181.912 131.247L231.823 58.1582C234.761 58.6322 237.368 59.438 239.643 60.5755C242.013 61.7131 243.198 63.2773 243.198 65.268C243.198 66.69 242.819 68.1119 242.061 69.5339C241.397 70.9558 240.544 72.4252 239.501 73.9419L189.59 146.888C186.273 146.604 183.523 145.846 181.343 144.613C179.258 143.286 178.215 141.675 178.215 139.779C178.215 138.451 178.547 137.077 179.21 135.655C179.874 134.233 180.774 132.764 181.912 131.247ZM262.11 124.99C262.11 131.816 260.025 137.219 255.854 141.201C251.683 145.087 246.374 147.031 239.928 147.031C233.482 147.031 228.126 145.087 223.86 141.201C219.689 137.219 217.603 131.816 217.603 124.99C217.603 118.165 219.689 112.809 223.86 108.922C228.126 105.035 233.482 103.092 239.928 103.092C246.374 103.092 251.683 105.035 255.854 108.922C260.025 112.809 262.11 118.165 262.11 124.99ZM233.102 124.99C233.102 128.024 233.719 130.346 234.951 131.958C236.278 133.475 237.937 134.233 239.928 134.233C241.824 134.233 243.388 133.475 244.62 131.958C245.947 130.346 246.611 128.024 246.611 124.99C246.611 122.052 245.947 119.824 244.62 118.307C243.388 116.79 241.824 116.032 239.928 116.032C237.937 116.032 236.278 116.79 234.951 118.307C233.719 119.824 233.102 122.052 233.102 124.99Z" fill="#ADFF00"/>
<path d="M127.512 102.675C127.512 96.4187 126.848 91.2049 125.521 87.0338C124.194 82.7679 122.346 79.5922 119.976 77.5067C117.606 75.4211 114.809 74.3783 111.586 74.3783C108.458 74.3783 105.709 75.4685 103.339 77.6489C100.969 79.7344 99.1202 82.8627 97.7931 87.0338C96.5607 91.2049 95.9445 96.4187 95.9445 102.675C95.9445 112.155 97.3191 119.265 100.068 124.005C102.817 128.745 106.657 131.115 111.586 131.115C116.705 131.115 120.639 128.745 123.388 124.005C126.137 119.265 127.512 112.155 127.512 102.675ZM111.728 148.036C104.429 148.036 97.9826 146.377 92.3896 143.059C86.8914 139.646 82.5781 134.575 79.4498 127.844C76.3215 121.113 74.7573 112.724 74.7573 102.675C74.7573 92.6268 76.3689 84.2847 79.592 77.6489C82.8151 70.9182 87.1758 65.894 92.674 62.5761C98.267 59.1634 104.618 57.457 111.728 57.457C118.743 57.457 125.047 59.1634 130.64 62.5761C136.233 65.894 140.641 70.9182 143.865 77.6489C147.182 84.3795 148.841 92.7216 148.841 102.675C148.841 112.724 147.23 121.113 144.007 127.844C140.878 134.575 136.518 139.646 130.925 143.059C125.332 146.377 118.933 148.036 111.728 148.036Z" fill="#ADFF00"/>
<path d="M3.99707 71.1078C3.99707 68.1691 5.08723 65.7044 7.26757 63.7137C9.44791 61.6281 12.434 60.064 16.2259 59.0212C20.0178 57.9784 24.4259 57.457 29.4501 57.457C36.5599 57.457 42.5321 58.5946 47.3668 60.8697C52.2963 63.0501 55.9934 66.131 58.4581 70.1125C61.0176 73.9992 62.2974 78.4546 62.2974 83.4789C62.2974 88.5031 60.8754 93.4326 58.0315 98.2673C55.1876 103.007 50.7795 107.889 44.8073 112.913L25.0421 129.408H61.1598C61.6338 130.167 62.1078 131.304 62.5818 132.821C63.0557 134.243 63.2927 135.807 63.2927 137.513C63.2927 140.452 62.6292 142.585 61.302 143.912C59.9748 145.239 58.2211 145.903 56.0407 145.903H6.4144C4.61325 144.671 3.19129 143.059 2.14852 141.068C1.20055 139.077 0.726562 136.85 0.726562 134.385C0.726562 131.541 1.29535 129.171 2.43291 127.275C3.66528 125.284 4.99244 123.626 6.4144 122.298L27.4594 103.671C32.5784 99.2152 36.0859 95.5655 37.9819 92.7216C39.8778 89.8777 40.8258 87.176 40.8258 84.6164C40.8258 81.4881 39.6408 79.0234 37.2709 77.2223C34.9958 75.3263 31.6779 74.3783 27.3172 74.3783C23.4305 74.3783 19.923 75.0419 16.7947 76.3691C13.7612 77.6015 11.2491 78.8812 9.25832 80.2084C7.83636 79.2604 6.60399 78.028 5.56122 76.5113C4.51846 74.9945 3.99707 73.1934 3.99707 71.1078Z" fill="#ADFF00"/>
<path d="M61.1115 191.204V181.715H77.3426C77.6201 182.159 77.8975 182.797 78.175 183.63C78.4524 184.462 78.5912 185.378 78.5912 186.376C78.5912 188.097 78.2027 189.345 77.4258 190.122C76.7045 190.843 75.6779 191.204 74.3461 191.204H61.1115ZM63.0259 178.386V189.706H51.2896V177.97C51.2896 174.307 52.0387 171.338 53.5369 169.063C55.0907 166.788 57.1993 165.123 59.8629 164.069C62.582 162.959 65.5785 162.404 68.8525 162.404C72.7369 162.404 75.6224 162.931 77.5091 163.986C79.4513 164.985 80.4224 166.622 80.4224 168.897C80.4224 169.896 80.2004 170.783 79.7565 171.56C79.368 172.337 78.9241 172.948 78.4247 173.392C77.3704 173.059 76.2328 172.781 75.012 172.559C73.7912 172.337 72.4316 172.226 70.9334 172.226C68.3253 172.226 66.3554 172.698 65.0236 173.641C63.6918 174.585 63.0259 176.166 63.0259 178.386ZM51.2896 187.292H63.6086V218.672C63.0537 218.839 62.2768 218.977 61.2779 219.088C60.2791 219.255 59.197 219.338 58.0317 219.338C55.7011 219.338 53.9809 218.922 52.871 218.09C51.8167 217.257 51.2896 215.759 51.2896 213.595V187.292ZM95.072 191.204V181.715H111.303C111.581 182.159 111.858 182.797 112.136 183.63C112.413 184.462 112.552 185.378 112.552 186.376C112.552 188.097 112.163 189.345 111.386 190.122C110.665 190.843 109.638 191.204 108.307 191.204H95.072ZM96.9865 178.386V189.706H85.2501V177.97C85.2501 174.307 85.9992 171.338 87.4975 169.063C89.0512 166.788 91.1599 165.123 93.8235 164.069C96.5425 162.959 99.539 162.404 102.813 162.404C106.697 162.404 109.583 162.931 111.47 163.986C113.412 164.985 114.383 166.622 114.383 168.897C114.383 169.896 114.161 170.783 113.717 171.56C113.329 172.337 112.885 172.948 112.385 173.392C111.331 173.059 110.193 172.781 108.973 172.559C107.752 172.337 106.392 172.226 104.894 172.226C102.286 172.226 100.316 172.698 98.9841 173.641C97.6523 174.585 96.9865 176.166 96.9865 178.386ZM85.2501 187.292H97.5691V218.672C97.0142 218.839 96.2373 218.977 95.2385 219.088C94.2396 219.255 93.1576 219.338 91.9923 219.338C89.6616 219.338 87.9414 218.922 86.8316 218.09C85.7772 217.257 85.2501 215.759 85.2501 213.595V187.292Z" fill="white"/>
<path d="M43.3682 198.774C43.3682 203.102 42.4803 206.876 40.7046 210.094C38.9844 213.257 36.5428 215.699 33.3798 217.419C30.2168 219.139 26.4989 220 22.2261 220C18.0088 220 14.2909 219.167 11.0724 217.502C7.90939 215.782 5.44003 213.341 3.66432 210.178C1.9441 206.959 1.08398 203.158 1.08398 198.774C1.08398 194.39 1.97184 190.645 3.74755 187.537C5.52327 184.374 7.99262 181.933 11.1556 180.212C14.3741 178.437 18.0643 177.549 22.2261 177.549C26.4434 177.549 30.1336 178.437 33.2966 180.212C36.4595 181.933 38.9289 184.402 40.7046 187.62C42.4803 190.783 43.3682 194.501 43.3682 198.774ZM22.2261 187.288C19.618 187.288 17.5371 188.286 15.9833 190.284C14.4851 192.282 13.7359 195.112 13.7359 198.774C13.7359 202.492 14.4851 205.35 15.9833 207.348C17.4816 209.29 19.5625 210.261 22.2261 210.261C24.8897 210.261 26.9706 209.262 28.4688 207.264C29.9671 205.267 30.7162 202.437 30.7162 198.774C30.7162 195.167 29.9671 192.365 28.4688 190.367C26.9706 188.314 24.8897 187.288 22.2261 187.288Z" fill="white"/>
<path d="M260.137 19.5613L266.855 19.6965V31.419C266.554 31.5092 266.133 31.5843 265.592 31.6445C265.051 31.7346 264.465 31.7797 263.834 31.7797C262.571 31.7797 261.64 31.5543 261.038 31.1034C260.437 30.6526 260.137 29.841 260.137 28.6688V19.5613ZM266.855 23.1682L260.137 23.0329V2.11281C260.437 2.02264 260.858 1.93246 261.399 1.84229C261.94 1.75212 262.526 1.70703 263.158 1.70703C264.45 1.70703 265.382 1.93246 265.953 2.38333C266.554 2.83419 266.855 3.66078 266.855 4.86309V23.1682Z" fill="white"/>
<path d="M244.737 27.1948C245.429 27.1948 246.105 27.1346 246.766 27.0144C247.458 26.8641 247.954 26.6988 248.254 26.5185V22.1902L244.467 22.5508C243.445 22.611 242.633 22.8214 242.032 23.1821C241.431 23.5428 241.13 24.0838 241.13 24.8052C241.13 25.5266 241.416 26.1127 241.987 26.5635C242.558 26.9844 243.475 27.1948 244.737 27.1948ZM244.467 9.16016C247.593 9.16016 250.088 9.82143 251.951 11.144C253.815 12.4364 254.747 14.4503 254.747 17.1856V27.4202C254.747 28.1716 254.551 28.7878 254.16 29.2687C253.77 29.7196 253.274 30.1104 252.673 30.441C251.771 30.982 250.644 31.4028 249.291 31.7034C247.969 32.034 246.451 32.1994 244.737 32.1994C241.672 32.1994 239.222 31.5982 237.388 30.3959C235.585 29.1936 234.683 27.4052 234.683 25.0306C234.683 22.9867 235.314 21.4237 236.577 20.3416C237.839 19.2295 239.718 18.5532 242.213 18.3127L248.209 17.6815V17.1405C248.209 16.1185 247.803 15.3821 246.992 14.9312C246.21 14.4804 245.083 14.2549 243.61 14.2549C242.468 14.2549 241.341 14.3902 240.229 14.6607C239.147 14.9312 238.17 15.2468 237.298 15.6075C236.937 15.3671 236.622 15.0064 236.351 14.5255C236.111 14.0145 235.991 13.4885 235.991 12.9474C235.991 11.685 236.682 10.7682 238.065 10.1971C238.936 9.83645 239.943 9.58096 241.085 9.43068C242.258 9.25033 243.385 9.16016 244.467 9.16016Z" fill="white"/>
<path d="M214.551 23.8133L214.281 19.3046L225.462 17.5462C225.402 16.7046 225.041 15.9231 224.38 15.2017C223.719 14.4804 222.742 14.1197 221.45 14.1197C220.097 14.1197 218.97 14.5856 218.068 15.5174C217.166 16.4191 216.685 17.7116 216.625 19.3948L216.851 22.5058C217.121 24.1589 217.828 25.3462 218.97 26.0676C220.112 26.7589 221.465 27.1046 223.028 27.1046C224.29 27.1046 225.477 26.9242 226.589 26.5635C227.702 26.2029 228.603 25.8271 229.295 25.4364C229.745 25.7069 230.106 26.0826 230.377 26.5635C230.677 27.0445 230.828 27.5554 230.828 28.0965C230.828 28.9982 230.467 29.7497 229.745 30.3508C229.054 30.952 228.077 31.4028 226.815 31.7034C225.582 32.004 224.17 32.1543 222.577 32.1543C220.262 32.1543 218.173 31.7184 216.31 30.8468C214.476 29.9751 213.033 28.6676 211.981 26.9242C210.929 25.1809 210.403 23.0017 210.403 20.3867C210.403 18.463 210.704 16.7948 211.305 15.3821C211.936 13.9694 212.763 12.8122 213.785 11.9104C214.837 10.9786 216.009 10.2873 217.302 9.83645C218.624 9.38559 219.992 9.16016 221.404 9.16016C223.478 9.16016 225.282 9.58096 226.815 10.4226C228.378 11.2341 229.595 12.3463 230.467 13.759C231.338 15.1717 231.774 16.8098 231.774 18.6734C231.774 19.6052 231.519 20.3116 231.008 20.7925C230.497 21.2734 229.791 21.574 228.889 21.6942L214.551 23.8133Z" fill="white"/>
<path d="M193.223 16.5543V21.6942H186.505V17.411C186.505 16.389 186.205 15.6376 185.604 15.1567C185.002 14.6757 184.251 14.4353 183.349 14.4353C182.688 14.4353 182.087 14.5405 181.546 14.7509C181.035 14.9312 180.599 15.1266 180.238 15.337V21.6942H173.565V14.6607C173.565 13.9093 173.716 13.2931 174.016 12.8122C174.347 12.3012 174.813 11.8503 175.414 11.4596C176.406 10.7682 177.623 10.2122 179.066 9.79137C180.509 9.37056 182.012 9.16016 183.575 9.16016C185.017 9.16016 186.37 9.38559 187.632 9.83645C188.895 10.2873 189.992 10.9786 190.924 11.9104C191.164 12.0908 191.39 12.2862 191.6 12.4966C191.84 12.6769 192.021 12.8873 192.141 13.1278C192.442 13.6087 192.697 14.1497 192.908 14.7509C193.118 15.352 193.223 15.9532 193.223 16.5543ZM206.163 17.2306V21.6942H199.49V17.411C199.49 16.389 199.205 15.6376 198.634 15.1567C198.062 14.6757 197.311 14.4353 196.379 14.4353C195.688 14.4353 195.027 14.5856 194.395 14.8861C193.794 15.1567 193.268 15.4873 192.817 15.878L189.301 12.0006C190.293 11.2191 191.42 10.5578 192.682 10.0168C193.945 9.4457 195.492 9.16016 197.326 9.16016C198.889 9.16016 200.347 9.43067 201.699 9.97171C203.052 10.5128 204.134 11.3694 204.946 12.5416C205.757 13.7139 206.163 15.2769 206.163 17.2306ZM173.565 19.6202H180.238V31.4329C179.938 31.5231 179.517 31.5982 178.976 31.6583C178.435 31.7485 177.849 31.7936 177.217 31.7936C175.955 31.7936 175.023 31.5681 174.422 31.1173C173.851 30.6664 173.565 29.8549 173.565 28.6826V19.6202ZM186.505 19.6202H193.223V31.4329C192.923 31.5231 192.502 31.5982 191.961 31.6583C191.42 31.7485 190.834 31.7936 190.202 31.7936C188.91 31.7936 187.963 31.5681 187.362 31.1173C186.791 30.6664 186.505 29.8549 186.505 28.6826V19.6202ZM199.49 19.6202H206.163V31.4329C205.892 31.5231 205.487 31.5982 204.946 31.6583C204.405 31.7485 203.818 31.7936 203.187 31.7936C201.895 31.7936 200.948 31.5681 200.347 31.1173C199.776 30.6664 199.49 29.8549 199.49 28.6826V19.6202Z" fill="white"/>
<path d="M160.361 25.1563C160.361 27.3505 159.534 29.0788 157.881 30.3412C156.228 31.5736 153.823 32.1898 150.667 32.1898C148.203 32.1898 146.174 31.8291 144.581 31.1077C142.988 30.3863 142.191 29.3192 142.191 27.9065C142.191 27.2753 142.326 26.7343 142.597 26.2834C142.867 25.8025 143.213 25.4268 143.634 25.1563C144.475 25.6372 145.452 26.088 146.564 26.5089C147.707 26.8996 148.999 27.095 150.442 27.095C152.636 27.095 153.733 26.4638 153.733 25.2013C153.733 24.6603 153.538 24.2395 153.147 23.9389C152.756 23.6083 152.11 23.3678 151.208 23.2175L149.315 22.7667C146.91 22.2557 145.107 21.4742 143.904 20.4222C142.732 19.3401 142.146 17.8673 142.146 16.0037C142.146 13.8997 142.988 12.2315 144.671 10.9991C146.384 9.73668 148.684 9.10547 151.569 9.10547C153.012 9.10547 154.319 9.25576 155.492 9.55633C156.694 9.82685 157.641 10.2627 158.332 10.8638C159.023 11.4349 159.369 12.1563 159.369 13.028C159.369 13.6291 159.249 14.1552 159.008 14.606C158.768 15.0569 158.452 15.4326 158.062 15.7332C157.731 15.5228 157.22 15.2973 156.529 15.0569C155.867 14.8164 155.131 14.6211 154.319 14.4708C153.538 14.3205 152.801 14.2453 152.11 14.2453C151.028 14.2453 150.186 14.3956 149.585 14.6962C148.984 14.9667 148.684 15.4026 148.684 16.0037C148.684 16.3945 148.849 16.7401 149.179 17.0407C149.54 17.3112 150.156 17.5366 151.028 17.717L152.831 18.1679C155.507 18.769 157.43 19.6407 158.603 20.7829C159.775 21.895 160.361 23.3528 160.361 25.1563Z" fill="white"/>
<path d="M130.824 26.0988V12.5278H137.497V26.9555C137.497 27.6769 137.347 28.293 137.046 28.804C136.745 29.2849 136.264 29.7208 135.603 30.1115C134.792 30.6526 133.725 31.1185 132.402 31.5092C131.11 31.93 129.607 32.1404 127.893 32.1404C125.399 32.1404 123.234 31.7196 121.401 30.878C119.597 30.0364 118.2 28.774 117.208 27.0907C116.246 25.3774 115.765 23.2584 115.765 20.7335C115.765 18.0885 116.261 15.9243 117.253 14.2411C118.275 12.5278 119.643 11.2503 121.356 10.4087C123.069 9.56711 124.963 9.1463 127.037 9.1463C128.119 9.1463 129.081 9.26653 129.922 9.50699C130.764 9.74746 131.455 10.033 131.996 10.3636V15.8642C131.575 15.5035 131.019 15.1729 130.328 14.8723C129.637 14.5717 128.84 14.4214 127.938 14.4214C126.886 14.4214 125.955 14.6469 125.143 15.0977C124.332 15.5486 123.7 16.2399 123.249 17.1717C122.799 18.1035 122.573 19.2908 122.573 20.7335C122.573 22.8376 123.039 24.3855 123.971 25.3774C124.933 26.3693 126.225 26.8653 127.848 26.8653C128.51 26.8653 129.096 26.7902 129.607 26.6399C130.118 26.4595 130.523 26.2792 130.824 26.0988ZM137.497 13.8353L130.824 13.8804V2.11281C131.095 2.02264 131.5 1.93246 132.041 1.84229C132.582 1.75212 133.169 1.70703 133.8 1.70703C135.122 1.70703 136.069 1.93246 136.64 2.38333C137.211 2.83419 137.497 3.66078 137.497 4.86309V13.8353Z" fill="white"/>
<path d="M111.568 17.4561V21.6942H104.85V17.6815C104.85 16.5694 104.52 15.7578 103.858 15.2468C103.227 14.7058 102.386 14.4353 101.334 14.4353C100.582 14.4353 99.8908 14.5405 99.2596 14.7509C98.6284 14.9312 98.0573 15.1567 97.5463 15.4272V21.6942H90.8735V14.6607C90.8735 13.9093 91.0238 13.2931 91.3244 12.8122C91.655 12.3012 92.1209 11.8503 92.7221 11.4596C93.6839 10.7983 94.9163 10.2573 96.4192 9.83645C97.9221 9.38559 99.5752 9.16016 101.379 9.16016C104.625 9.16016 107.135 9.88154 108.908 11.3243C110.682 12.737 111.568 14.7809 111.568 17.4561ZM90.8735 19.6202H97.5463V31.4329C97.2458 31.5231 96.825 31.5982 96.2839 31.6583C95.7429 31.7485 95.1568 31.7936 94.5255 31.7936C93.2631 31.7936 92.3313 31.5681 91.7302 31.1173C91.1591 30.6664 90.8735 29.8549 90.8735 28.6826V19.6202ZM104.85 19.6202H111.568V31.4329C111.268 31.5231 110.847 31.5982 110.306 31.6583C109.765 31.7485 109.179 31.7936 108.547 31.7936C107.285 31.7936 106.353 31.5681 105.752 31.1173C105.151 30.6664 104.85 29.8549 104.85 28.6826V19.6202Z" fill="white"/>
<path d="M69.5454 23.8133L69.2749 19.3046L80.4564 17.5462C80.3962 16.7046 80.0355 15.9231 79.3743 15.2017C78.713 14.4804 77.7361 14.1197 76.4437 14.1197C75.0911 14.1197 73.9639 14.5856 73.0622 15.5174C72.1604 16.4191 71.6795 17.7116 71.6194 19.3948L71.8448 22.5058C72.1153 24.1589 72.8217 25.3462 73.9639 26.0676C75.1061 26.7589 76.4587 27.1046 78.0217 27.1046C79.2841 27.1046 80.4714 26.9242 81.5835 26.5635C82.6956 26.2029 83.5974 25.8271 84.2887 25.4364C84.7396 25.7069 85.1003 26.0826 85.3708 26.5635C85.6714 27.0445 85.8216 27.5554 85.8216 28.0965C85.8216 28.9982 85.461 29.7497 84.7396 30.3508C84.0482 30.952 83.0714 31.4028 81.8089 31.7034C80.5766 32.004 79.1639 32.1543 77.5708 32.1543C75.2564 32.1543 73.1674 31.7184 71.3038 30.8468C69.4703 29.9751 68.0275 28.6676 66.9755 26.9242C65.9235 25.1809 65.3975 23.0017 65.3975 20.3867C65.3975 18.463 65.698 16.7948 66.2992 15.3821C66.9304 13.9694 67.757 12.8122 68.7789 11.9104C69.831 10.9786 71.0032 10.2873 72.2957 9.83645C73.6182 9.38559 74.9859 9.16016 76.3986 9.16016C78.4725 9.16016 80.276 9.58096 81.8089 10.4226C83.3719 11.2341 84.5893 12.3463 85.461 13.759C86.3326 15.1717 86.7685 16.8098 86.7685 18.6734C86.7685 19.6052 86.513 20.3116 86.002 20.7925C85.491 21.2734 84.7847 21.574 83.8829 21.6942L69.5454 23.8133Z" fill="white"/>
<path d="M53.938 3.60692C53.938 2.58496 54.2837 1.72832 54.975 1.03699C55.6964 0.345663 56.5981 0 57.6802 0C58.7923 0 59.694 0.345663 60.3854 1.03699C61.0767 1.72832 61.4223 2.58496 61.4223 3.60692C61.4223 4.59882 61.0767 5.45546 60.3854 6.17685C59.694 6.89823 58.7923 7.25893 57.6802 7.25893C56.5981 7.25893 55.6964 6.89823 54.975 6.17685C54.2837 5.45546 53.938 4.59882 53.938 3.60692ZM54.3438 19.5675H61.0166V31.4253C60.746 31.5155 60.3403 31.5906 59.7992 31.6507C59.2582 31.7409 58.6721 31.786 58.0409 31.786C56.7484 31.786 55.8016 31.5605 55.2004 31.1097C54.6293 30.6588 54.3438 29.8473 54.3438 28.675V19.5675ZM61.0166 23.0392H54.3438V10.0994C54.6143 10.0092 55.0201 9.91903 55.5611 9.82886C56.1322 9.73868 56.7334 9.6936 57.3646 9.6936C58.657 9.6936 59.5888 9.91903 60.1599 10.3699C60.731 10.7907 61.0166 11.6173 61.0166 12.8496V23.0392Z" fill="white"/>
<path d="M42.5966 15.6466V21.2824H35.9238V14.835C35.9238 13.9934 36.1192 13.2871 36.51 12.716C36.9308 12.1148 37.5019 11.5888 38.2232 11.1379C39.2151 10.5368 40.4024 10.0709 41.7851 9.74026C43.1978 9.37956 44.6706 9.19922 46.2035 9.19922C49.2694 9.19922 50.8024 10.2212 50.8024 12.2651C50.8024 12.746 50.7272 13.1969 50.5769 13.6177C50.4567 14.0385 50.3064 14.3992 50.1261 14.6998C49.8255 14.6397 49.4498 14.5946 48.9989 14.5645C48.5781 14.5044 48.1122 14.4743 47.6012 14.4743C46.6995 14.4743 45.7978 14.5795 44.896 14.7899C43.9943 15.0003 43.2278 15.2859 42.5966 15.6466ZM35.9238 19.5691L42.5966 19.7044V31.4269C42.2961 31.517 41.8752 31.5922 41.3342 31.6523C40.7932 31.7425 40.207 31.7876 39.5758 31.7876C38.3134 31.7876 37.3816 31.5621 36.7805 31.1113C36.2094 30.6604 35.9238 29.8488 35.9238 28.6766V19.5691Z" fill="white"/>
<path d="M20.3335 20.2424H13.5254V7.79849C13.5254 6.6563 13.856 5.7696 14.5173 5.13838C15.1786 4.47712 16.0653 4.14648 17.1774 4.14648C17.8086 4.14648 18.4098 4.19157 18.9809 4.28174C19.582 4.37192 20.0329 4.44706 20.3335 4.50717V20.2424ZM17.0872 21.2794V15.7788H30.6583C30.8386 16.0794 31.0039 16.4701 31.1542 16.951C31.3045 17.4019 31.3796 17.8979 31.3796 18.4389C31.3796 19.4008 31.1542 20.1221 30.7033 20.6031C30.2825 21.0539 29.6964 21.2794 28.945 21.2794H17.0872ZM17.1774 9.64704V4.14648H32.1912C32.3715 4.417 32.5369 4.79272 32.6872 5.27365C32.8374 5.75457 32.9126 6.26555 32.9126 6.80659C32.9126 7.76843 32.6872 8.48982 32.2363 8.97074C31.8155 9.4216 31.2294 9.64704 30.4779 9.64704H17.1774ZM13.5254 17.5823H20.3785V31.4238C20.108 31.514 19.6722 31.5891 19.071 31.6492C18.4699 31.7394 17.8537 31.7845 17.2225 31.7845C15.8699 31.7845 14.908 31.544 14.3369 31.0631C13.7959 30.5822 13.5254 29.7556 13.5254 28.5834V17.5823Z" fill="white"/>
</svg>
