<svg width="30" height="30" viewBox="0 0 30 30" fill="#000000" xmlns="http://www.w3.org/2000/svg" class="bg-black">
<g clip-path="url(#clip0_2556_4236)">
<path d="M15.001 0.00390625C6.76211 0.00390625 0.000976562 6.76504 0.000976562 15.0039C0.000976562 22.0345 4.93428 28.4209 11.4854 30.0039V25.0413C10.8363 25.1834 10.2389 25.1876 9.57812 24.9928C8.6916 24.7312 7.97131 24.1407 7.43664 23.2403C7.09586 22.6653 6.49182 22.0418 5.8617 22.0876L5.70725 20.3366C7.06979 20.2199 8.24846 21.1668 8.94818 22.3423C9.25902 22.8651 9.61674 23.1716 10.0759 23.3071C10.5197 23.4377 10.9962 23.375 11.5515 23.1789C11.6909 22.0672 12.2001 21.6511 12.5849 21.0651V21.0643C8.67789 20.4815 7.12082 18.4088 6.50283 16.7727C5.68387 14.6004 6.12332 11.8865 7.57147 10.1716C7.59959 10.1381 7.65045 10.0507 7.63076 9.98957C6.96678 7.98391 7.77584 6.32471 7.80561 6.14875C8.5719 6.37527 8.69641 5.9207 11.1343 7.40184L11.5556 7.65496C11.7319 7.76002 11.6765 7.70008 11.8527 7.68678C12.8706 7.41027 13.9435 7.25764 15.0007 7.24393C16.066 7.25764 17.1321 7.41033 18.1921 7.69803L18.3285 7.71174C18.3166 7.70992 18.3655 7.70301 18.4477 7.65408C21.493 5.80949 21.3836 6.41236 22.2002 6.14688C22.2297 6.32313 23.0281 8.00928 22.3712 9.98957C22.2826 10.2624 25.0114 12.7611 23.4989 16.772C22.8809 18.4087 21.3241 20.4815 17.417 21.0643V21.0651C17.9178 21.8285 18.5196 22.2345 18.5164 23.8092V30.0039C25.0677 28.4209 30.0007 22.0345 30.0007 15.0039C30.001 6.76504 23.2398 0.00390625 15.001 0.00390625Z" fill="#ADFF00"/>
</g>
<defs>
<clipPath id="clip0_2556_4236">
<rect width="30" height="30" fill="red" transform="translate(0.00195312)"/>
</clipPath>
</defs>
</svg>
