<svg width="108" height="60" viewBox="0 0 108 60" fill="none" xmlns="http://www.w3.org/2000/svg">
<path d="M30.25 0C30.25 3.97825 28.6696 7.79356 25.8566 10.6066C23.0436 13.4196 19.2282 15 15.25 15C11.2718 15 7.45645 13.4196 4.6434 10.6066C1.83035 7.79356 0.250001 3.97825 0.25 1.90735e-06L15.25 0H30.25Z" fill="#97DE00"/>
<path d="M107.5 55.125C107.5 52.4326 105.317 50.25 102.625 50.25H97.75V55.125C97.75 57.8174 99.9326 60 102.625 60C105.317 60 107.5 57.8174 107.5 55.125Z" fill="#97DE00"/>
<path d="M2.35179 51L2.35179 37.0275C2.35179 36.3525 2.48679 35.925 2.75679 35.745C3.04929 35.565 3.53304 35.475 4.20804 35.475H7.88679L7.88679 41.5162H15.5143L15.5143 35.475H21.0493V49.245C21.0493 49.9425 20.9368 50.415 20.7118 50.6625C20.4868 50.8875 19.9693 51 19.1593 51H15.5143V44.385H7.88679L7.88679 51H2.35179ZM30.7929 51.1688C29.2179 51.1688 27.9467 51.1125 26.9792 51C26.0117 50.91 25.2579 50.7187 24.7179 50.4262C24.2004 50.1337 23.8517 49.7175 23.6717 49.1775C23.4917 48.6375 23.4017 47.94 23.4017 47.085C23.4017 45.9375 23.5142 45.0712 23.7392 44.4862C23.9642 43.8787 24.3579 43.4625 24.9204 43.2375C25.4829 43.0125 26.2367 42.9 27.1817 42.9C27.7442 42.9 28.3854 42.9112 29.1054 42.9337C29.8479 42.9337 30.5679 42.945 31.2654 42.9675C31.9854 42.99 32.6042 43.035 33.1217 43.1025C33.6617 43.1475 34.0329 43.1925 34.2354 43.2375C34.2354 42.54 34.1679 41.9887 34.0329 41.5837C33.9204 41.1787 33.7292 40.875 33.4592 40.6725C33.1892 40.4475 32.8292 40.3012 32.3792 40.2337C31.9292 40.1662 31.3779 40.1325 30.7254 40.1325C29.9379 40.1325 29.1504 40.1437 28.3629 40.1662C27.5979 40.1887 26.8442 40.2337 26.1017 40.3012C25.3817 40.3687 24.7179 40.4475 24.1104 40.5375V39.5925C24.1104 38.985 24.2454 38.535 24.5154 38.2425C24.7854 37.95 25.1567 37.7587 25.6292 37.6687C26.1467 37.5562 26.9117 37.4775 27.9242 37.4325C28.9592 37.3875 30.0729 37.365 31.2654 37.365C32.7729 37.365 34.0329 37.4437 35.0454 37.6012C36.0804 37.7587 36.8904 38.04 37.4754 38.445C38.0604 38.85 38.4767 39.4575 38.7242 40.2675C38.9717 41.055 39.0954 42.1125 39.0954 43.44L39.0954 50.1562C38.7354 50.4937 37.8354 50.7525 36.3954 50.9325C34.9779 51.09 33.1104 51.1688 30.7929 51.1688ZM30.7592 49.0762C31.3892 49.0762 31.9179 49.065 32.3454 49.0425C32.7954 48.9975 33.1779 48.9412 33.4929 48.8737C33.8079 48.8062 34.0554 48.7275 34.2354 48.6375L34.2354 44.8575C33.9879 44.79 33.6392 44.7337 33.1892 44.6887C32.7617 44.6437 32.3229 44.61 31.8729 44.5875C31.4229 44.565 31.0742 44.5537 30.8267 44.5537C30.2867 44.5537 29.8479 44.5987 29.5104 44.6887C29.1729 44.7787 28.9254 44.9812 28.7679 45.2962C28.6329 45.6112 28.5654 46.095 28.5654 46.7475C28.5654 47.31 28.6217 47.7712 28.7342 48.1312C28.8467 48.4687 29.0604 48.7162 29.3754 48.8737C29.6904 49.0087 30.1517 49.0762 30.7592 49.0762ZM42.9077 51C42.1427 51 41.6365 50.8875 41.389 50.6625C41.164 50.4375 41.0515 49.9312 41.0515 49.1437L41.0515 38.3775C41.389 38.265 41.8277 38.1637 42.3677 38.0737C42.9302 37.9612 43.5377 37.86 44.1902 37.77C44.8427 37.68 45.5065 37.6125 46.1815 37.5675C46.879 37.5 47.5202 37.4662 48.1052 37.4662C49.0052 37.4662 49.7815 37.5337 50.434 37.6687C51.0865 37.8037 51.6377 38.0625 52.0877 38.445C52.5602 38.8275 52.954 39.4012 53.269 40.1662L52.5602 40.1325C52.7627 39.5475 53.0552 39.075 53.4377 38.715C53.8202 38.355 54.2702 38.0962 54.7877 37.9387C55.3052 37.7587 55.8115 37.635 56.3065 37.5675C56.8015 37.5 57.2515 37.4662 57.6565 37.4662C59.209 37.4662 60.4352 37.6012 61.3352 37.8712C62.2352 38.1187 62.8765 38.5912 63.259 39.2887C63.664 39.9637 63.8665 40.92 63.8665 42.1575L63.8665 49.3125C63.8665 50.055 63.7315 50.5275 63.4615 50.73C63.214 50.91 62.7415 51 62.044 51H58.8377C58.8377 49.4925 58.8377 47.9962 58.8377 46.5112C58.8377 45.0037 58.8377 43.4962 58.8377 41.9887C58.8152 41.1112 58.6352 40.5375 58.2977 40.2675C57.9827 39.9975 57.499 39.8625 56.8465 39.8625C56.5315 39.8625 56.2277 39.9075 55.9352 39.9975C55.6652 40.0875 55.4402 40.2112 55.2602 40.3687C55.0802 40.5262 54.9902 40.7175 54.9902 40.9425L54.9902 51H49.9277L49.9277 41.6175C49.9277 41.01 49.7477 40.5825 49.3877 40.335C49.0502 40.065 48.5665 39.93 47.9365 39.93C47.5765 39.93 47.2615 39.9637 46.9915 40.0312C46.7215 40.0762 46.5077 40.155 46.3502 40.2675C46.1927 40.3575 46.1027 40.5037 46.0802 40.7062L46.0802 51H42.9077ZM72.1543 51.135C71.6143 51.135 71.0406 51.1238 70.4331 51.1013C69.8256 51.0788 69.2181 51.0338 68.6106 50.9662C68.0256 50.8987 67.4856 50.7975 66.9906 50.6625C66.5856 50.5725 66.2481 50.46 65.9781 50.325C65.7306 50.1675 65.5393 49.8862 65.4043 49.4812C65.2918 49.0537 65.2356 48.39 65.2356 47.49C65.9331 47.7375 66.6531 47.94 67.3956 48.0975C68.1381 48.2325 68.8581 48.3337 69.5556 48.4012C70.2756 48.4462 70.9393 48.4687 71.5468 48.4687C71.9743 48.4687 72.4356 48.4687 72.9306 48.4687C73.4481 48.4462 73.9431 48.39 74.4156 48.3C74.8881 48.1875 75.2818 48.0187 75.5968 47.7937C75.9118 47.5462 76.0693 47.2087 76.0693 46.7813C76.0693 46.2637 75.9343 45.9262 75.6643 45.7687C75.3943 45.6112 75.0343 45.5325 74.5843 45.5325H70.7368C69.7018 45.5325 68.7793 45.4762 67.9693 45.3637C67.1818 45.2512 66.5518 44.9475 66.0793 44.4525C65.6293 43.935 65.4043 43.0687 65.4043 41.8537C65.4043 40.5262 65.7306 39.5475 66.3831 38.9175C67.0581 38.265 68.0143 37.8375 69.2518 37.635C70.4893 37.4325 71.9743 37.3312 73.7068 37.3312C74.3368 37.3312 75.0681 37.3425 75.9006 37.365C76.7556 37.3875 77.4981 37.4437 78.1281 37.5337C78.8256 37.6012 79.3656 37.7137 79.7481 37.8712C80.1531 38.0062 80.4456 38.2312 80.6256 38.5462C80.8056 38.8387 80.8956 39.3 80.8956 39.93V40.875C80.7606 40.65 80.4118 40.4812 79.8493 40.3687C79.3093 40.2337 78.6456 40.1437 77.8581 40.0987C77.0931 40.0537 76.2831 40.0312 75.4281 40.0312C74.5956 40.0312 73.8193 40.0312 73.0993 40.0312C72.6043 40.0312 72.1431 40.065 71.7156 40.1325C71.3106 40.1775 70.9843 40.3125 70.7368 40.5375C70.4893 40.74 70.3656 41.0775 70.3656 41.55C70.3656 41.91 70.4443 42.18 70.6018 42.36C70.7593 42.5175 70.9731 42.6187 71.2431 42.6637C71.5131 42.7087 71.8168 42.7312 72.1543 42.7312H76.4406C77.3856 42.7312 78.2181 42.8212 78.9381 43.0012C79.6581 43.1587 80.2093 43.5187 80.5918 44.0812C80.9743 44.6212 81.1656 45.4762 81.1656 46.6462C81.1656 47.9962 80.7831 48.9862 80.0181 49.6162C79.2531 50.2462 78.1956 50.6625 76.8456 50.865C75.4956 51.045 73.9318 51.135 72.1543 51.135ZM89.6159 51.1688C88.0409 51.1688 86.7696 51.1125 85.8021 51C84.8346 50.91 84.0809 50.7187 83.5409 50.4262C83.0234 50.1337 82.6746 49.7175 82.4946 49.1775C82.3146 48.6375 82.2246 47.94 82.2246 47.085C82.2246 45.9375 82.3371 45.0712 82.5621 44.4862C82.7871 43.8787 83.1809 43.4625 83.7434 43.2375C84.3059 43.0125 85.0596 42.9 86.0046 42.9C86.5671 42.9 87.2084 42.9112 87.9284 42.9337C88.6709 42.9337 89.3909 42.945 90.0884 42.9675C90.8084 42.99 91.4271 43.035 91.9446 43.1025C92.4846 43.1475 92.8559 43.1925 93.0584 43.2375C93.0584 42.54 92.9909 41.9887 92.8559 41.5837C92.7434 41.1787 92.5521 40.875 92.2821 40.6725C92.0121 40.4475 91.6521 40.3012 91.2021 40.2337C90.7521 40.1662 90.2009 40.1325 89.5484 40.1325C88.7609 40.1325 87.9734 40.1437 87.1859 40.1662C86.4209 40.1887 85.6671 40.2337 84.9246 40.3012C84.2046 40.3687 83.5409 40.4475 82.9334 40.5375V39.5925C82.9334 38.985 83.0684 38.535 83.3384 38.2425C83.6084 37.95 83.9796 37.7587 84.4521 37.6687C84.9696 37.5562 85.7346 37.4775 86.7471 37.4325C87.7821 37.3875 88.8959 37.365 90.0884 37.365C91.5959 37.365 92.8559 37.4437 93.8684 37.6012C94.9034 37.7587 95.7134 38.04 96.2984 38.445C96.8834 38.85 97.2996 39.4575 97.5471 40.2675C97.7946 41.055 97.9184 42.1125 97.9184 43.44V50.1562C97.5584 50.4937 96.6584 50.7525 95.2184 50.9325C93.8009 51.09 91.9334 51.1688 89.6159 51.1688ZM89.5821 49.0762C90.2121 49.0762 90.7409 49.065 91.1684 49.0425C91.6184 48.9975 92.0009 48.9412 92.3159 48.8737C92.6309 48.8062 92.8784 48.7275 93.0584 48.6375V44.8575C92.8109 44.79 92.4621 44.7337 92.0121 44.6887C91.5846 44.6437 91.1459 44.61 90.6959 44.5875C90.2459 44.565 89.8971 44.5537 89.6496 44.5537C89.1096 44.5537 88.6709 44.5987 88.3334 44.6887C87.9959 44.7787 87.7484 44.9812 87.5909 45.2962C87.4559 45.6112 87.3884 46.095 87.3884 46.7475C87.3884 47.31 87.4446 47.7712 87.5571 48.1312C87.6696 48.4687 87.8834 48.7162 88.1984 48.8737C88.5134 49.0087 88.9746 49.0762 89.5821 49.0762Z" fill="#060606"/>
</svg>
